<svg width="50" height="50" viewBox="0 0 50 50" fill="none" xmlns="http://www.w3.org/2000/svg">
<g clip-path="url(#clip0)">
<path d="M25.0287 48.9118C38.219 48.9118 48.9118 38.2189 48.9118 25.0286C48.9118 11.8383 38.219 1.14548 25.0287 1.14548C11.8384 1.14548 1.14551 11.8383 1.14551 25.0286C1.14551 38.2189 11.8384 48.9118 25.0287 48.9118Z" fill="black"/>
<path d="M25.0286 2.29095C37.5716 2.29095 47.7663 12.4857 47.7663 25.0286C47.7663 37.5716 37.5143 47.7091 25.0286 47.7091C12.543 47.7091 2.29095 37.5143 2.29095 25.0286C2.29095 12.543 12.4857 2.29095 25.0286 2.29095ZM25.0286 0C11.1684 0 0 11.1684 0 25.0286C0 38.8316 11.1684 50.0573 25.0286 50.0573C38.8889 50.0573 50.0573 38.8889 50.0573 25.0286C50 11.1684 38.8316 0 25.0286 0Z" fill="#FFED00"/>
<path d="M30.2977 24.3414L25.4867 16.4948H29.7823L32.5314 21.4204L35.8533 16.4948H40.1488L34.7651 24.3414L40.1488 32.7606H35.8533L32.5314 27.2623L26.9186 35.0515H22.623L30.2977 24.3414Z" fill="white"/>
<path d="M24.5704 16.5521H20.6757V27.8351C20.6757 29.7824 19.5303 30.8706 17.7548 30.8706C15.9793 30.8706 14.8338 29.7824 14.8338 27.8351V16.5521H10.9392V28.0641C10.9392 31.9588 13.5738 34.1924 17.6975 34.1924C18.6139 34.1924 19.4157 34.0779 20.1603 33.9061L24.5131 27.8351V16.5521H24.5704Z" fill="white"/>
</g>
<defs>
<clipPath id="clip0">
<rect width="50" height="50" fill="white"/>
</clipPath>
</defs>
</svg>
